<svg xmlns="http://www.w3.org/2000/svg" xml:space="preserve" width="1500" height="1500" data-id="lg_DVaUFixDGSV7dwW9Vz" data-version="1" viewBox="0 0 1500 1500"><path fill="#007a78" stroke="transparent" d="M0 0h1500v1500H0z"/><g data-padding="20"><g transform="translate(-727.046 -735.293)scale(1.91633)"><path fill="#fff" stroke="#000" stroke-width="19.474" d="m614.54 837.642-94.452 12.828 47.271-82.768-41.39-85.867 93.326 19.379 68.875-65.891 10.41 94.745 83.95 45.138-86.89 39.18-16.988 93.79Z"/><path d="m619.073 814.335-73.359 10.033 36.66-64.327-32.215-66.67 72.508 14.985 53.453-51.233 8.156 73.589 65.242 35-67.465 30.5-13.127 72.866Z"/><path fill="#007a78" d="m624.783 798.78-55.412 7.567 27.7-48.583-24.32-50.363 54.765 11.33 40.384-38.688 6.148 55.586 49.274 26.449-50.965 23.025-9.928 55.036Z"/><rect width="352.599" height="293.8" x="164.651" y="209.683" fill="none" rx="0" ry="0" transform="translate(504.2 418.49)"/><path fill="#fff" stroke="#000" stroke-width="2.52" d="M761.91 858.293q-27.82 0-47.06-12.22t-29.12-33.8-9.88-49.66q0-27.82 9.88-49.53t29.12-34.06 47.06-12.35 46.93 12.35 28.99 34.06 9.88 49.53q0 28.08-9.88 49.66t-28.99 33.8-46.93 12.22Zm-53.3-99.84q0 8.06 3.9 15.21t15.34 11.44 34.06 4.29 33.93-4.29 15.21-11.44 3.9-15.21q0-8.32-3.9-14.95t-15.21-10.66-33.93-4.03-34.06 4.03-15.34 10.66-3.9 14.95Zm176.54-90.22h44.2q30.94 0 50.57 11.57t29.12 32.76 9.49 50.31q0 48.88-21.06 71.76t-64.48 22.88h-11.44q-12.74 0-23.66-2.6t-19.24-9.49-13-19.37-4.68-32.24q0-18.46 5.07-31.98t12.09-21.58 12.74-9.88l-1.3-4.94h-4.42q-11.96 0-18.85-7.67t-7.15-20.67 6.89-20.93 19.11-7.93Zm25.48 61.62v60.58q0 5.46 2.47 7.54t7.41 2.08h14.04q13.26 0 20.54-5.72t10.27-14.69 2.99-19.11-2.99-19.5-10.27-15.34-20.54-5.98h-14.04q-4.94 0-7.41 2.21t-2.47 7.93Z"/></g><path fill="transparent" stroke="transparent" stroke-width="1.996" d="M250 456.587h1000v586.826H250z"/></g></svg>